<svg xmlns="http://www.w3.org/2000/svg" version="1.1" xmlns:xlink="http://www.w3.org/1999/xlink" xmlns:svgjs="http://svgjs.dev/svgjs" width="1500" height="1500" viewBox="0 0 1500 1500"><rect width="1500" height="1500" fill="#020714"></rect><g transform="matrix(0.6666666666666666,0,0,0.6666666666666666,249.50000000000006,249.50031043352237)"><svg viewBox="0 0 280 280" data-background-color="#020714" preserveAspectRatio="xMidYMid meet" height="1500" width="1500" xmlns="http://www.w3.org/2000/svg" xmlns:xlink="http://www.w3.org/1999/xlink"><g id="tight-bounds" transform="matrix(1,0,0,1,0.13999999999998636,0.1399130786137448)"><svg viewBox="0 0 279.72 279.72" height="279.72" width="279.72"><g><svg viewBox="0 0 279.72 279.72" height="279.72" width="279.72"><g><svg viewBox="0 0 279.72 279.72" height="279.72" width="279.72"><g id="textblocktransform"><svg viewBox="0 0 279.72 279.72" height="279.72" width="279.72" id="textblock"><g><svg viewBox="0 0 279.72 279.72" height="279.72" width="279.72"><g transform="matrix(1,0,0,1,73.92936372216631,84.02958538383584)"><svg viewBox="0 0 131.8612725556674 111.66082923232834" height="111.66082923232834" width="131.8612725556674"><g><svg xmlns="http://www.w3.org/2000/svg" viewBox="0.4931661265323376 5.778673437943652 69.00380442440466 58.43278980158205" x="0" y="0" width="131.8612725556674" height="111.66082923232834" class="icon-xg-0" data-fill-palette-color="accent" id="xg-0"><g data-name="Layer 2" fill="#346baa" data-fill-palette-color="accent"><g data-name="Layer 1" fill="#346baa" data-fill-palette-color="accent"><circle class="cls-1" cx="35.48" cy="35.48" r="35" fill="none" stroke="#346baa" stroke-miterlimit="10"></circle><path class="cls-2" d="M45 27.56V24.35H42.94a7.42 7.42 0 0 0-1.28-2.87L43.11 20l-2.27-2.27-1.57 1.57a7.35 7.35 0 0 0-2.18-0.83V16.43H33.88V18.5a7.62 7.62 0 0 0-2.18 0.83l-1.57-1.57L27.86 20l1.46 1.46A7.54 7.54 0 0 0 28 24.42H26v3.2H28a7.6 7.6 0 0 0 1 2.47l-1.51 1.51 2.27 2.27 1.51-1.51a7.51 7.51 0 0 0 2.53 1.05v2.07h3.21V33.41a7.32 7.32 0 0 0 2.53-1.05l1.51 1.51 2.27-2.27-1.51-1.51a7.32 7.32 0 0 0 1.05-2.53ZM30.8 26a4.68 4.68 0 1 1 4.69 4.69A4.68 4.68 0 0 1 30.8 26Z" fill="none" stroke="#346baa" stroke-linecap="round" stroke-linejoin="round"></path><path class="cls-2" d="M50.38 50.93c-4.86-4.49-2.07-10.45 0-15.52s2.47-10.75-0.17-15.86C45.09 9.68 30.84 7.68 23 15.66c-4.57 4.68-2.39 11.56-3.83 17.24-0.22 0.89-1.47 3.19-1.5 4.08s1.83 1.41 2.48 1.38c2.19-0.08 1.44 1.83 1.85 4.23 0.3 1.78 0.9 4.23 2.77 5 2.18 0.93 5.74-0.8 7.35 1.33 2.28 3-0.06 11.78 1.51 11.78C43.9 60.74 51.55 52 50.38 50.93Z" fill="none" stroke="#346baa" stroke-linecap="round" stroke-linejoin="round"></path></g></g></svg></g></svg></g><g><path d="M30.723 100.376l-3.094 8.333-0.63-0.234-0.264-3.273-18.195-6.755-2.298 2.323-0.63-0.235 2.043-5.504 21.105-7.323-14.268-5.296-2.499 2.867-0.631-0.234 3.062-8.247 0.63 0.234 0.24 3.22 20.278 7.528-0.567 1.529-22.835 8.029 15.252 5.661 2.67-2.857z" fill="#366a97" data-fill-palette-color="primary"></path><path d="M45.416 72.311l-5.625 7.845-0.547-0.392 0.608-3.227-15.74-11.285-2.861 1.611-0.546-0.392 5.625-7.845 0.546 0.392-0.685 3.334 6.677 4.788 7.306-10.19-6.677-4.787-2.932 1.711-0.547-0.393 5.595-7.803 0.547 0.392-0.584 3.194 15.74 11.285 2.837-1.578 0.547 0.392-5.595 7.804-0.547-0.392 0.679-3.326-7.356-5.275-7.306 10.189 7.356 5.275 2.938-1.719z" fill="#366a97" data-fill-palette-color="primary"></path><path d="M73.857 43.12l-14.32 12.16-0.436-0.513 1.372-2.983-12.537-14.763-3.166 0.87-0.435-0.513 7.575-6.433 0.436 0.513-1.69 3.254 12.51 14.731 6.938-5.892-1.973-6.134 0.513-0.436z" fill="#366a97" data-fill-palette-color="primary"></path><path d="M85.41 37.112l-6.985 3.467-0.3-0.603 1.433-1.929-1.412-23.777 1.58-0.784 18.03 15.484 2.676-0.065 0.299 0.602-8.19 4.066-0.3-0.603 2.109-2.355-5.197-4.533-7.807 3.875 0.495 6.958 3.269-0.406zM80.509 18.571l0.689 9.115 6.236-3.095z" fill="#366a97" data-fill-palette-color="primary"></path><path d="M114.916 26.27l-9.335 2.068-0.146-0.657 2.656-2.008-4.188-18.91-3.255-0.698-0.146-0.657 9.335-2.068 0.146 0.657-2.607 1.997 4.189 18.909 3.206 0.71zM129.287 23.087l-5.772 1.278-14.097-9.155 7.417-11.53-2.792-0.583-0.145-0.656 8.141-1.804 0.145 0.657-2.168 1.43-7.196 10.782 13.171 8.463 3.151 0.461z" fill="#366a97" data-fill-palette-color="primary"></path><path d="M140.721 23.546l-7.793-0.276 0.024-0.673 2.178-1.014 10.077-21.583 1.762 0.062 8.486 22.2 2.384 1.217-0.024 0.672-9.138-0.324 0.024-0.672 2.976-1.068-2.413-6.46-8.71-0.308-2.877 6.354 3.068 1.2zM145.237 4.907l-3.733 8.344 6.958 0.246z" fill="#366a97" data-fill-palette-color="primary"></path><path d="M170.934 27.842l-8.538-2.473 0.188-0.646 3.244-0.504 5.4-18.642-2.485-2.12 0.187-0.646 5.64 1.633 8.853 20.51 4.234-14.618-3.043-2.282 0.187-0.647 8.45 2.448-0.187 0.646-3.194 0.476-6.018 20.776-1.566-0.453-9.685-22.184-4.526 15.627 3.046 2.453z" fill="#366a97" data-fill-palette-color="primary"></path><path d="M200.812 40.003l-8.125-4.282 0.314-0.595 3.09 0.062 9.029-17.134-1.797-2.515 0.313-0.595 8.125 4.282-0.313 0.595-3.172-0.104-9.029 17.134 1.879 2.557z" fill="#366a97" data-fill-palette-color="primary"></path><path d="M214.561 50.457l-7.867-6.222 0.417-0.528 3.235 0.791 12.014-15.19-1.514-2.966 0.417-0.528 7.308 5.78c5.021 3.971 6.153 7.7 3.395 11.186v0c-0.885 1.119-1.989 1.814-3.312 2.084-1.322 0.28-2.751 0.159-4.288-0.363-1.531-0.518-3.075-1.392-4.631-2.623v0l-1.711-1.353-4.888 6.18 1.842 3.224zM226.74 32.824l-1.615-1.278-5.798 7.332 1.806 1.429c1.514 1.197 2.971 1.825 4.371 1.884 1.4 0.059 2.568-0.503 3.504-1.686v0c1.024-1.295 1.302-2.583 0.834-3.863-0.469-1.281-1.503-2.553-3.102-3.818z" fill="#366a97" data-fill-palette-color="primary"></path><path d="M231.153 68.099l-5.922-7.623 0.531-0.413 2.921 1.5 15.294-11.883-0.732-3.201 0.531-0.413 5.923 7.623-0.531 0.413-3.003-1.605-6.487 5.041 7.692 9.901 6.488-5.041-0.807-3.298 0.532-0.412 5.891 7.582-0.531 0.413-2.896-1.468-15.294 11.883 0.707 3.169-0.532 0.413-5.891-7.583 0.531-0.413 2.996 1.597 7.148-5.554-7.693-9.901-7.147 5.554 0.812 3.306z" fill="#366a97" data-fill-palette-color="primary"></path><path d="M247.634 97.665v0c-0.883-2.113-1.19-4.202-0.919-6.267 0.268-2.071 1.05-3.937 2.344-5.598 1.288-1.658 3.017-2.941 5.186-3.848v0c2.163-0.904 4.296-1.236 6.401-0.996 2.098 0.243 3.981 0.995 5.65 2.256 1.66 1.258 2.932 2.943 3.815 5.056v0c0.896 2.144 1.209 4.249 0.938 6.314-0.277 2.068-1.062 3.943-2.355 5.625-1.302 1.679-3.034 2.97-5.197 3.874v0c-2.169 0.907-4.299 1.23-6.389 0.97-2.099-0.264-3.979-1.025-5.639-2.283-1.66-1.258-2.938-2.959-3.835-5.103zM249.846 97.513v0c0.928 2.22 2.415 3.645 4.462 4.278 2.05 0.623 4.326 0.412 6.828-0.634v0c2.038-0.852 3.685-1.95 4.943-3.293 1.258-1.343 2.055-2.818 2.393-4.425 0.341-1.616 0.172-3.235-0.507-4.86v0c-0.928-2.22-2.408-3.663-4.44-4.33-2.036-0.659-4.305-0.465-6.806 0.58v0c-2.063 0.862-3.727 1.974-4.992 3.335-1.265 1.361-2.069 2.846-2.413 4.456-0.335 1.613-0.157 3.244 0.532 4.893z" fill="#366a97" data-fill-palette-color="primary"></path><path d="M11.337 191.937l-3.085-8.997 0.55-0.188 2.16 2.654 15.707-5.386-1.798-5.245-4.567-0.309-0.186-0.54 5.689-1.951 6.12 17.848-5.689 1.951-0.189-0.55 3.41-3.065-1.798-5.246-15.708 5.386-0.067 3.449z" fill="#ab9217" data-fill-palette-color="secondary"></path><path d="M22.843 214.153l-4.399-7.012 0.492-0.309 2.356 1.531 14.092-8.841-0.344-2.793 0.484-0.303 4.399 7.011-0.484 0.304-2.424-1.62-5.975 3.749 5.72 9.118 5.975-3.749-0.409-2.896 0.484-0.303 4.382 6.985-0.483 0.304-2.348-1.499-14.092 8.841 0.336 2.761-0.492 0.309-4.383-6.986 0.492-0.309 2.421 1.634 6.589-4.133-5.721-9.119-6.588 4.134 0.412 2.882z" fill="#ab9217" data-fill-palette-color="secondary"></path><path d="M50.254 246.796l-11.576-11.431 0.409-0.414 2.644 0.95 11.689-11.837-0.975-2.639 0.401-0.406 10.937 10.801-3.588 3.634-0.414-0.408 1.103-3.568-5.302-5.236-4.935 4.997 3.865 3.818 2.488-0.982 0.414 0.409-4.685 4.743-0.413-0.408 0.929-2.478-3.866-3.818-5.437 5.505 5.89 5.816 4.012-1.496 0.406 0.401z" fill="#ab9217" data-fill-palette-color="secondary"></path><path d="M82.007 266.115l-1.364-0.571 1.902-19.46-1.823-1.901 0.221-0.526 7.71 3.227-0.221 0.527-2.881-0.112-1.469 13.673 0.197 0.082 11.133-11.495 1.232 0.515-0.677 15.873 0.169 0.071 8.447-10.675-2.074-2.04 0.22-0.527 6.544 2.74-0.22 0.526-2.361 0.15-12.462 15.039-1.401-0.586 0.524-15.981-0.17-0.071z" fill="#ab9217" data-fill-palette-color="secondary"></path><path d="M119.861 278.173l-7.746-1.501 0.111-0.571 2.556-0.709 3.166-16.331-2.104-1.623 0.108-0.561 7.746 1.502-0.109 0.56-2.629 0.706-3.166 16.331 2.177 1.627z" fill="#ab9217" data-fill-palette-color="secondary"></path><path d="M138.506 279.717v0c-1.27-0.029-2.365-0.187-3.283-0.473-0.918-0.279-1.851-0.661-2.798-1.145v0l-0.214-4.859 0.57 0.013 1.618 3.28c0.688 0.539 1.396 0.919 2.125 1.14 0.722 0.221 1.467 0.34 2.235 0.357v0c1.372 0.032 2.432-0.226 3.178-0.773 0.74-0.547 1.123-1.395 1.15-2.543v0c0.02-0.863-0.192-1.534-0.637-2.013-0.444-0.479-1.1-0.926-1.968-1.34-0.867-0.421-1.929-0.945-3.186-1.572v0c-1.498-0.755-2.569-1.514-3.21-2.277-0.642-0.756-0.948-1.793-0.918-3.11v0c0.023-1.012 0.344-1.943 0.962-2.792 0.624-0.849 1.429-1.534 2.413-2.055 0.984-0.514 2.063-0.758 3.239-0.731v0c0.985 0.023 1.893 0.169 2.722 0.44 0.837 0.271 1.658 0.609 2.464 1.015v0l0.148 4.683-0.581-0.013-1.298-2.987c-0.567-0.489-1.109-0.848-1.627-1.077-0.525-0.23-1.137-0.352-1.837-0.369v0c-1.196-0.027-2.144 0.25-2.843 0.832-0.693 0.589-1.051 1.373-1.074 2.351v0c-0.015 0.652 0.125 1.196 0.421 1.631 0.303 0.442 0.782 0.857 1.44 1.246 0.65 0.389 1.496 0.847 2.538 1.374v0c1.351 0.677 2.431 1.296 3.24 1.859 0.803 0.555 1.38 1.174 1.732 1.855 0.358 0.681 0.525 1.538 0.501 2.57v0c-0.025 1.101-0.354 2.072-0.984 2.914-0.631 0.835-1.485 1.482-2.563 1.94-1.078 0.451-2.303 0.661-3.675 0.629z" fill="#ab9217" data-fill-palette-color="secondary"></path><path d="M173.728 275.471l-16.032 2.771-0.098-0.573 2.309-1.599-2.833-16.393-2.714-0.741-0.097-0.562 15.147-2.618 0.87 5.032-0.573 0.099-2.261-2.971-7.343 1.269 1.196 6.921 5.354-0.926 0.648-2.594 0.572-0.099 1.136 6.569-0.573 0.099-1.476-2.197-5.354 0.926 1.318 7.623 8.156-1.409 1.117-4.134 0.562-0.098z" fill="#ab9217" data-fill-palette-color="secondary"></path><path d="M207.166 261.312l-6.269 3.759-0.298-0.499 1.586-2.329-7.969-14.619-2.991 0.403-0.294-0.49 5.526-3.313 13.718 9.579-1.733-16.765 5.246-3.145 0.293 0.489-1.762 2.234 9.077 14.168 2.584-0.171 0.298 0.499-6.696 4.015-0.299-0.498 1.445-2.21-8.017-12.736 1.944 18.565-0.805 0.482-15.162-10.639 7.431 13.088 2.848-0.365z" fill="#ab9217" data-fill-palette-color="secondary"></path><path d="M239.484 237.333l-5.739 5.414-0.399-0.423 0.916-2.49-11.415-12.101-2.546 0.762-0.392-0.415 5.739-5.414 0.392 0.416-0.961 2.546 11.415 12.101 2.591-0.819z" fill="#ab9217" data-fill-palette-color="secondary"></path><path d="M251.986 221.476l-4.398 6.241-0.475-0.334 0.508-2.773-13.632-9.606-2.416 1.428-0.466-0.329 2.9-4.116 19.133-1.457-10.69-7.533-2.703 1.836-0.467-0.329 4.357-6.182 0.467 0.329-0.515 2.729 15.19 10.705-0.81 1.15-20.716 1.65 11.415 8.044 2.843-1.787z" fill="#ab9217" data-fill-palette-color="secondary"></path><path d="M268.733 190.521l-3.078 7.881-0.541-0.211-0.16-2.842-15.496-6.051-2.053 1.978-0.531-0.208 3.155-8.08c0.873-2.235 1.97-3.991 3.294-5.269 1.321-1.272 2.783-2.065 4.387-2.38 1.604-0.315 3.257-0.14 4.96 0.526v0c2.076 0.811 3.715 1.939 4.915 3.385 1.201 1.446 1.909 3.135 2.126 5.065 0.21 1.928-0.116 3.996-0.978 6.206zM251.53 184.077v0l-0.931 2.383 15.43 6.025 1.008-2.582c0.979-2.507 1.012-4.704 0.101-6.592-0.912-1.888-2.542-3.29-4.89-4.208v0c-2.481-0.969-4.637-1.026-6.466-0.172-1.832 0.861-3.249 2.576-4.252 5.146z" fill="#ab9217" data-fill-palette-color="secondary"></path><path d="M2.402 140.347c0-5.052 4.095-9.147 9.147-9.147 5.052 0 9.147 4.095 9.147 9.147 0 5.052-4.095 9.147-9.147 9.147-5.052 0-9.147-4.095-9.147-9.147z" fill="#366a97" data-fill-palette-color="primary"></path><path d="M259.024 140.347c0-5.052 4.095-9.147 9.147-9.147 5.052 0 9.147 4.095 9.147 9.147 0 5.052-4.095 9.147-9.147 9.147-5.052 0-9.147-4.095-9.147-9.147z" fill="#366a97" data-fill-palette-color="primary"></path></g></svg></g></svg></g></svg></g></svg></g><defs></defs></svg><rect width="279.72" height="279.72" fill="none" stroke="none" visibility="hidden"></rect></g></svg></g></svg>